<svg id="レイヤー_1" data-name="レイヤー 1" xmlns="http://www.w3.org/2000/svg" viewBox="0 0 216 250">
  <defs>
    <style>
      .cls-1 {
        fill: #def4f8;
      }
    </style>
  </defs>
  <path class="cls-1" d="M63.4,194.7,37.9,209.4,0,187.3H0V146a4.6,4.6,0,0,1,2.3-4l23.1-13.4a2.8,2.8,0,0,1,3.8,1.1l1.4,2.3a10.3,10.3,0,0,1-3.8,14l-11.2,6.4v25.8l22.3,13,11.1-6.5A10.2,10.2,0,0,1,63,188.5l1.4,2.4A2.8,2.8,0,0,1,63.4,194.7ZM39.8,147.9l14.1,24.7a4.6,4.6,0,0,1-1.7,6.3l-11.9,6.9a4.7,4.7,0,0,1-4.6,0l-14.2-8.2a4.9,4.9,0,0,1-2.3-4.1V157.1a4.6,4.6,0,0,1,2.4-4l11.9-6.9A4.7,4.7,0,0,1,39.8,147.9ZM21.7,96.6a4.7,4.7,0,0,1-2.4-4.1V76.1a4.7,4.7,0,0,1,2.3-4l14.2-8.2a4.7,4.7,0,0,1,4.6,0l11.9,7a4.6,4.6,0,0,1,1.7,6.3L39.9,101.8a4.7,4.7,0,0,1-6.4,1.7Zm124.1,102v29.5l-38,21.9h0l-38-22.1V198.5a2.7,2.7,0,0,1,2.8-2.8h2.7a10.2,10.2,0,0,1,10.2,10.2v13l.9.5,21.4,12.4L130.1,219V206a10.3,10.3,0,0,1,10.2-10.2h2.8A2.8,2.8,0,0,1,145.8,198.6ZM89,214.2V200.4a4.6,4.6,0,0,1,4.6-4.7H122a4.7,4.7,0,0,1,4.7,4.7v13.7a4.7,4.7,0,0,1-2.3,4.1l-14.2,8.1a4.3,4.3,0,0,1-4.6,0l-14.1-8.2A4.6,4.6,0,0,1,89,214.2Zm126.8-26.5-38,21.9h0l-25.4-14.8a2.7,2.7,0,0,1-1-3.8l1.3-2.3a10.1,10.1,0,0,1,13.9-3.7l11.2,6.4.9-.5,21.4-12.3V152.8L189,146.3a10.3,10.3,0,0,1-3.7-14l1.4-2.4a2.8,2.8,0,0,1,3.8-1l25.3,14.8v44Zm-21.5-34.3a4.7,4.7,0,0,1,2.4,4.1v16.4a4.7,4.7,0,0,1-2.3,4l-14.2,8.2a4.7,4.7,0,0,1-4.6,0l-11.9-7a4.6,4.6,0,0,1-1.7-6.3l5.8-10,8.4-14.6a4.7,4.7,0,0,1,6.4-1.7ZM176.2,102,162.1,77.4a4.6,4.6,0,0,1,1.7-6.3l11.9-6.9a4.9,4.9,0,0,1,4.7,0l14.1,8.2a4.9,4.9,0,0,1,2.3,4.1V92.9a4.7,4.7,0,0,1-2.3,4l-12,6.9A4.6,4.6,0,0,1,176.2,102Zm-.5-60a4.9,4.9,0,0,1,4.7,0l33.3,19.3a4.9,4.9,0,0,1,2.3,4.1V104a4.6,4.6,0,0,1-2.3,4l-23.1,13.4a2.8,2.8,0,0,1-3.8-1.1l-2.2-3.8a8.4,8.4,0,0,1,3.1-11.6l12.7-7.3V71.8L178,58.8l-12.6,7.3A8.6,8.6,0,0,1,153.8,63l-2.2-3.9a2.8,2.8,0,0,1,1-3.8ZM70.2,21.9,108.2,0l38,22.1h0V51.5a2.7,2.7,0,0,1-2.8,2.8h-4.4a8.5,8.5,0,0,1-8.5-8.5V31.1l-.9-.5L108.2,18.2,85.9,31V45.7a8.5,8.5,0,0,1-8.5,8.5H72.9a2.8,2.8,0,0,1-2.7-2.8ZM127,35.8V49.6a4.6,4.6,0,0,1-4.6,4.7H94a4.7,4.7,0,0,1-4.7-4.7V35.8a4.9,4.9,0,0,1,2.3-4.1l14.2-8.1a4.3,4.3,0,0,1,4.6,0l14.2,8.2A4.7,4.7,0,0,1,127,35.8ZM83.3,57.7h49.6a24.1,24.1,0,0,1,20.9,12.1l8.7,15.3,14,24.4h0l2,3.5a23.9,23.9,0,0,1-.1,24.1l-14,24.3-8.9,15.3h0l-1.9,3.5a24.3,24.3,0,0,1-20.9,12H83.1a23.8,23.8,0,0,1-20.8-12.1L44.7,149.5l-5.2-9.1h0l-2-3.5a23.9,23.9,0,0,1,.1-24.1l17-29.4,5.9-10.2h0l1.9-3.5A24.3,24.3,0,0,1,83.3,57.7ZM38.2,40.4,63.6,55.2a2.7,2.7,0,0,1,1,3.8l-2.2,3.8a8.5,8.5,0,0,1-11.6,3.1L38.2,58.5l-.9.6L15.9,71.4V97.2l12.6,7.4a8.6,8.6,0,0,1,3.1,11.6l-1.8,3.1a3.6,3.6,0,0,1-4.9,1.3L.1,106.7V62.3ZM138.3,72.5H77.9L47.5,124.9l30.2,52.6h60.4l30.4-52.5ZM122.7,174.1H93.1A23.2,23.2,0,0,1,73,162.3L58.3,136.6a23.3,23.3,0,0,1,0-23.4L73.1,87.6A23.3,23.3,0,0,1,93.3,75.9h29.6A23.2,23.2,0,0,1,143,87.7l14.8,25.7a23.5,23.5,0,0,1-.1,23.4l-14.8,25.6A23.3,23.3,0,0,1,122.7,174.1Zm5.8-84.6H88.1a.8.8,0,0,0-.7.4l-20,34.6a.6.6,0,0,0,0,.8L87.3,160a.8.8,0,0,0,.7.5h39.9a.7.7,0,0,0,.7-.4l20-34.6a.6.6,0,0,0,0-.8Zm-14,67.5H101.4a20.7,20.7,0,0,1-17.8-10.4l-6.5-11.3a20.7,20.7,0,0,1,.1-20.7l6.5-11.3A20.6,20.6,0,0,1,101.6,93h13a20.7,20.7,0,0,1,17.8,10.4l6.5,11.3a20.7,20.7,0,0,1,0,20.7l-6.6,11.3A20.6,20.6,0,0,1,114.5,157Z"/>
</svg>
