<svg xmlns="http://www.w3.org/2000/svg" width="51" height="41" viewBox="0 0 51 41">
  <defs>
    <style>
      .cls-1 {
        fill-rule: evenodd;
      }
    </style>
  </defs>
  <path id="sns_tw" class="cls-1" d="M2420,2244.85h0m-15.69-4.85a10.4,10.4,0,0,0-10.46,10.35,10.227,10.227,0,0,0,.27,2.36,29.784,29.784,0,0,1-21.57-10.82,10.279,10.279,0,0,0,3.24,13.82,10.507,10.507,0,0,1-4.74-1.29v0.13a10.384,10.384,0,0,0,8.39,10.15,10.874,10.874,0,0,1-2.76.36,10.586,10.586,0,0,1-1.96-.18,10.443,10.443,0,0,0,9.77,7.18,21.1,21.1,0,0,1-12.99,4.43,20.6,20.6,0,0,1-2.5-.14,29.821,29.821,0,0,0,16.04,4.65c19.25,0,29.77-15.77,29.77-29.45,0-.45-0.01-0.89-0.03-1.34a21.108,21.108,0,0,0,5.22-5.36,20.876,20.876,0,0,1-6.01,1.63,10.4,10.4,0,0,0,4.6-5.72,21.37,21.37,0,0,1-6.64,2.51,10.518,10.518,0,0,0-7.64-3.27" transform="translate(-2369 -2240)"/>
</svg>
