<svg xmlns="http://www.w3.org/2000/svg" width="50.53" height="47" viewBox="0 0 50.53 47">
  <defs>
    <style>
      .cls-1 {
        fill-rule: evenodd;
      }
    </style>
  </defs>
  <path id="sns_line" class="cls-1" d="M2594.59,2269.33c3.66-3.92,5.41-7.9,5.41-12.32,0-11.03-11.33-20.01-25.26-20.01s-25.26,8.98-25.26,20.01c0,9.9,8.99,18.19,21.13,19.75,0.82,0.18,1.94.53,2.22,1.22a4.806,4.806,0,0,1,.08,2.23s-0.29,1.74-.36,2.11c-0.11.62-.5,2.44,2.19,1.33s14.55-8.36,19.85-14.32h0m-29.74-5.75h-5.01a1.315,1.315,0,0,1-1.33-1.29v-9.8a1.325,1.325,0,0,1,2.65,0v8.5h3.69A1.3,1.3,0,1,1,2564.85,2263.58Zm5.2-1.29a1.325,1.325,0,0,1-2.65,0v-9.8a1.325,1.325,0,0,1,2.65,0v9.8Zm12.08,0a1.284,1.284,0,0,1-.91,1.22,1.234,1.234,0,0,1-.42.07,1.336,1.336,0,0,1-1.06-.52l-5.14-6.84v6.07a1.325,1.325,0,0,1-2.65,0v-9.8a1.293,1.293,0,0,1,.91-1.23,1.158,1.158,0,0,1,.42-0.07,1.331,1.331,0,0,1,1.05.52l5.15,6.84v-6.06a1.325,1.325,0,0,1,2.65,0v9.8Zm8.12-6.2a1.3,1.3,0,1,1,0,2.59h-3.7v2.31h3.7a1.3,1.3,0,1,1,0,2.59h-5.02a1.315,1.315,0,0,1-1.33-1.29v-4.9h0v-4.9h0a1.317,1.317,0,0,1,1.33-1.3h5.02a1.3,1.3,0,1,1,0,2.59h-3.7v2.31h3.7Z" transform="translate(-2549.47 -2237)"/>
</svg>
